<?xml version="1.0" encoding="utf-8"?>
<!-- Generator: Adobe Illustrator 18.1.0, SVG Export Plug-In . SVG Version: 6.00 Build 0)  -->
<!DOCTYPE svg PUBLIC "-//W3C//DTD SVG 1.1//EN" "http://www.w3.org/Graphics/SVG/1.1/DTD/svg11.dtd">
<svg version="1.1" id="Laag_1" xmlns="http://www.w3.org/2000/svg" xmlns:xlink="http://www.w3.org/1999/xlink" x="0px" y="0px"
	 viewBox="0 0 130 150" enable-background="new 0 0 130 150" xml:space="preserve">
<g>
	<g>
		<g>
			<path fill="#FFFFFF" d="M80.5,142.5c-5.9,0-11.2-2.9-14.5-7.6c-3.3,4.7-8.6,7.6-14.5,7.6c-9.7,0-17.6-7.9-17.6-17.6v-7.5
				c-8.8-0.5-16-7.3-17-16.2c-0.1-0.3-0.1-0.6-0.1-0.8V75.2c0-6,2.9-11.6,7.8-15v-12c0-9.1,6.7-16.8,15.7-18.1
				c5.5-7.4,13.6-12,22.7-12.9v-1.6c-1.2-1-2-2.5-2-4.1c0-2.8,2.3-5.1,5.1-5.1s5.1,2.3,5.1,5.1c0,1.6-0.7,3.1-2,4.1v1.6
				c9,0.9,17.2,5.5,22.7,12.9c9,1.3,15.7,9,15.7,18.1v12c4.9,3.4,7.8,9,7.8,15v25.1c0,0.3,0,0.6-0.1,0.8c-1,8.9-8.2,15.6-17,16.2
				v7.5C98.2,134.6,90.3,142.5,80.5,142.5z"/>
			<path fill="#FFFFFF" d="M66,7.7c2.1,0,3.8,1.7,3.8,3.8c0,1.4-0.8,2.7-2,3.3v3.6c9.6,0.6,18,5.5,23.3,12.9
				c8.5,0.9,15.1,8.1,15.1,16.9v12.8c4.7,3,7.8,8.3,7.8,14.3v10.2v13.7v1.3c0,0.2,0,0.4-0.1,0.6C113,109.4,105.8,116,97,116h-0.2
				v4.7v4.2c0,9-7.3,16.3-16.3,16.3c-6.3,0-11.8-3.6-14.5-8.9c-2.7,5.3-8.2,8.9-14.5,8.9c-9,0-16.3-7.3-16.3-16.3v-4.2V116H35
				c-8.7,0-15.9-6.6-16.9-15.1c-0.1-0.2-0.1-0.4-0.1-0.6v-1.3V85.4V75.2c0-6,3.1-11.3,7.8-14.3V48.1c0-8.7,6.6-15.9,15.1-16.9
				c5.3-7.4,13.7-12.3,23.3-12.9v-3.6c-1.2-0.6-2-1.9-2-3.3C62.3,9.4,64,7.7,66,7.7 M66,5c-3.6,0-6.5,2.9-6.5,6.5
				c0,1.7,0.7,3.3,1.8,4.5c-8.7,1.2-16.5,5.8-21.9,12.8c-9.4,1.6-16.3,9.7-16.3,19.4v11.4c-4.9,3.7-7.8,9.5-7.8,15.7v10.2v13.7v1.3
				c0,0.4,0,0.7,0.1,1.1c1.1,9,8.2,16,17,17.1v2.1v4.2c0,10.5,8.5,19,19,19c5.7,0,10.9-2.5,14.5-6.7c3.6,4.2,8.8,6.7,14.5,6.7
				c10.5,0,19-8.5,19-19v-4.2v-2.1c8.8-1.1,15.9-8.1,17-17.1c0.1-0.4,0.1-0.7,0.1-1.1v-1.3V85.4V75.2c0-6.2-2.9-12-7.8-15.7V48.1
				c0-9.6-6.9-17.7-16.3-19.4c-5.4-7-13.2-11.6-21.9-12.8c1.1-1.2,1.8-2.8,1.8-4.5C72.5,7.9,69.6,5,66,5L66,5z"/>
		</g>
	</g>
	<g>
		<path fill="#F2F2F2" d="M102.6,59.2c-1.7-0.6-3.6-0.9-5.6-0.9h-0.2v-9.1c0-4.9-1.2-9.5-3.2-13.6c5.2,1.8,9,6.8,9,12.6V59.2z
			 M35.2,49.1v9.1H35c-1.9,0-3.8,0.3-5.6,0.9v-11c0-5.8,3.7-10.8,9-12.6C36.4,39.6,35.2,44.2,35.2,49.1z"/>
	</g>
	<g>
		<linearGradient id="SVGID_1_" gradientUnits="userSpaceOnUse" x1="38.8138" y1="54.134" x2="93.2621" y2="54.134">
			<stop  offset="0" style="stop-color:#CCE0F4"/>
			<stop  offset="6.405089e-02" style="stop-color:#C3DCF2"/>
			<stop  offset="0.1706" style="stop-color:#A9D2EE"/>
			<stop  offset="0.3066" style="stop-color:#80C2E7"/>
			<stop  offset="0.4649" style="stop-color:#47ACDE"/>
			<stop  offset="0.5674" style="stop-color:#1E9CD7"/>
			<stop  offset="0.8652" style="stop-color:#0075BE"/>
			<stop  offset="0.9944" style="stop-color:#005B97"/>
		</linearGradient>
		<path fill="url(#SVGID_1_)" d="M93.3,50.9c0,9.5-12.2,17.1-27.2,17.1s-27.2-7.7-27.2-17.1c0-3.9,2.1-7.6,6-10.7h42.4
			C91.1,43.3,93.3,47,93.3,50.9z"/>
	</g>
	<g>
		<path fill="#FCEE21" d="M93.3,118.8v6c0,7-5.7,12.7-12.7,12.7c-7,0-12.7-5.7-12.7-12.7v-8.5h7.9c1,0,1.8-0.8,1.8-1.8
			c0-1-0.8-1.8-1.8-1.8H56.3c-1,0-1.8,0.8-1.8,1.8c0,1,0.8,1.8,1.8,1.8h7.9v8.5c0,7-5.7,12.7-12.7,12.7c-7,0-12.7-5.7-12.7-12.7v-6
			v-4.3V81.8c0-1-0.8-1.8-1.8-1.8c-1,0-1.8,0.8-1.8,1.8v16.7H21.6V85.3V75.1c0-7.4,6-13.4,13.4-13.4H38
			c4.6,10.2,14.6,17.4,26.3,18.1v24.8c0,1,0.8,1.8,1.8,1.8c1,0,1.8-0.8,1.8-1.8V79.8c11.7-0.7,21.7-7.9,26.3-18.1H97
			c7.4,0,13.4,6,13.4,13.4v10.2v13.1H96.8V81.8c0-1-0.8-1.8-1.8-1.8c-1,0-1.8,0.8-1.8,1.8v32.7V118.8z"/>
	</g>
	<polygon fill="#FFFFFF" points="76.1,92.1 78.7,92.1 81.5,89.3 84.3,92.1 86.9,92.1 82.8,88 86.9,83.9 84.3,83.9 81.5,86.7 
		78.7,83.9 76.1,83.9 80.2,88 	"/>
	<g>
		<linearGradient id="SVGID_2_" gradientUnits="userSpaceOnUse" x1="18.0717" y1="74.4565" x2="114.0043" y2="74.4565">
			<stop  offset="0" style="stop-color:#2012B1"/>
			<stop  offset="1" style="stop-color:#1B1464"/>
		</linearGradient>
		<path fill="url(#SVGID_2_)" d="M106.2,60.9V48.1c0-8.7-6.6-15.9-15.1-16.9C85.8,23.9,77.4,19,67.8,18.4v-3.6c1.2-0.6,2-1.9,2-3.3
			c0-2.1-1.7-3.8-3.8-3.8c-2.1,0-3.8,1.7-3.8,3.8c0,1.4,0.8,2.7,2,3.3v3.6c-9.6,0.6-18,5.5-23.3,12.9c-8.5,0.9-15.1,8.1-15.1,16.9
			v12.8c-4.7,3-7.8,8.3-7.8,14.3v10.2v13.7v1.3c0,0.2,0,0.4,0.1,0.6c0.9,8.5,8.1,15.1,16.9,15.1h0.2v4.7v4.2c0,9,7.3,16.3,16.3,16.3
			c6.3,0,11.8-3.6,14.5-8.9c2.7,5.3,8.2,8.9,14.5,8.9c9,0,16.3-7.3,16.3-16.3v-4.2V116H97c8.7,0,15.9-6.6,16.9-15.1
			c0.1-0.2,0.1-0.4,0.1-0.6v-1.3V85.4V75.2C114,69.2,110.9,63.9,106.2,60.9z M93.3,118.9v6c0,7-5.7,12.7-12.7,12.7
			c-7,0-12.7-5.7-12.7-12.7v-8.5h7.9c1,0,1.8-0.8,1.8-1.8c0-1-0.8-1.8-1.8-1.8H56.3c-1,0-1.8,0.8-1.8,1.8c0,1,0.8,1.8,1.8,1.8h7.9
			v8.5c0,7-5.7,12.7-12.7,12.7c-7,0-12.7-5.7-12.7-12.7v-6v-4.3V81.9c0-1-0.8-1.8-1.8-1.8c-1,0-1.8,0.8-1.8,1.8v16.7H21.6V85.4V75.2
			c0-7.4,6-13.4,13.4-13.4H38C42.6,72,52.5,79.2,64.3,79.9v24.8c0,1,0.8,1.8,1.8,1.8c1,0,1.8-0.8,1.8-1.8V79.9
			c11.7-0.7,21.7-7.9,26.3-18.1H97c7.4,0,13.4,6,13.4,13.4v10.2v13.1H96.8V81.9c0-1-0.8-1.8-1.8-1.8c-1,0-1.8,0.8-1.8,1.8v32.7
			V118.9z M102.6,59.2c-1.7-0.6-3.6-0.9-5.6-0.9h-0.2v-9.1c0-4.9-1.2-9.5-3.2-13.6c5.2,1.8,9,6.8,9,12.6V59.2z M93.3,50.9
			c0,9.5-12.2,17.1-27.2,17.1s-27.2-7.7-27.2-17.1c0-3.9,2.1-7.6,6-10.7h42.4C91.1,43.3,93.3,47,93.3,50.9z M35.2,49.1v9.1H35
			c-1.9,0-3.8,0.3-5.6,0.9v-11c0-5.8,3.7-10.8,9-12.6C36.4,39.6,35.2,44.2,35.2,49.1z"/>
	</g>
</g>
</svg>
